<svg xmlns="http://www.w3.org/2000/svg" viewBox="0 0 128 128">
  <rect width="128" height="128" rx="22" fill="#0f172a"/>
  <g stroke="#c084fc" stroke-width="2.5" stroke-linecap="round">
    <line x1="64" y1="64" x2="64" y2="10"/>
    <line x1="64" y1="64" x2="110.8" y2="37"/>
    <line x1="64" y1="64" x2="110.8" y2="91"/>
    <line x1="64" y1="64" x2="64" y2="118"/>
    <line x1="64" y1="64" x2="17.2" y2="91"/>
    <line x1="64" y1="64" x2="17.2" y2="37"/>
  </g>
  <polygon points="64,46 79.6,55 79.6,73 64,82 48.4,73 48.4,55"
           fill="none" stroke="#c084fc" stroke-width="2.5" stroke-linejoin="round"/>
  <polygon points="64,30 93.4,47 93.4,81 64,98 34.6,81 34.6,47"
           fill="none" stroke="#c084fc" stroke-width="2.5" stroke-linejoin="round"/>
  <polygon points="64,14 107.3,39 107.3,89 64,114 20.7,89 20.7,39"
           fill="none" stroke="#c084fc" stroke-width="2.5" stroke-linejoin="round"/>
  <circle cx="64" cy="64" r="4" fill="#c084fc"/>
</svg>
